0
SECTION
2
HEADER
9
$ACADVER
1
AC1015
9
$INSUNITS
70
4
0
ENDSEC
0
SECTION
2
TABLES
0
TABLE
2
LAYER
70
1
0
LAYER
2
CUT
70
0
62
1
6
CONTINUOUS
0
ENDTAB
0
ENDSEC
0
SECTION
2
ENTITIES
0
LWPOLYLINE
8
CUT
90
90
70
1
10
8.314905
20
-1.466142
10
8.355801
20
-1.211533
10
10.517581
20
-0.702265
10
10.541000
20
0.000000
10
10.517581
20
0.702265
10
8.355801
20
1.211533
10
8.266253
20
1.719383
10
10.123482
20
2.937312
10
9.905300
20
3.605234
10
9.643104
20
4.257137
10
7.437515
20
3.996321
10
7.312005
20
4.221588
10
7.179673
20
4.442917
10
8.508341
20
6.222605
10
8.074874
20
6.775624
10
7.605527
20
7.298536
10
5.622156
20
6.299094
10
5.427169
20
6.467848
10
5.227119
20
6.630569
10
5.866969
20
8.757360
10
5.270500
20
9.128774
10
4.650611
20
9.459624
10
3.128682
20
7.842102
10
2.887736
20
7.933990
10
2.644097
20
8.018477
10
2.517954
20
10.235848
10
1.830425
20
10.380859
10
1.134763
20
10.479742
10
0.257842
20
8.439238
10
0.000000
20
8.443176
10
-0.257842
20
8.439238
10
-1.134763
20
10.479742
10
-1.830425
20
10.380859
10
-2.517954
20
10.235848
10
-2.644097
20
8.018477
10
-2.887736
20
7.933990
10
-3.128682
20
7.842102
10
-4.650611
20
9.459624
10
-5.270500
20
9.128774
10
-5.866969
20
8.757360
10
-5.227119
20
6.630569
10
-5.427169
20
6.467848
10
-5.622156
20
6.299094
10
-7.605527
20
7.298536
10
-8.074874
20
6.775624
10
-8.508341
20
6.222605
10
-7.179673
20
4.442917
10
-7.312005
20
4.221588
10
-7.437515
20
3.996321
10
-9.643104
20
4.257137
10
-9.905300
20
3.605234
10
-10.123482
20
2.937312
10
-8.266253
20
1.719383
10
-8.355801
20
1.211533
10
-10.517581
20
0.702265
10
-10.541000
20
0.000000
10
-10.517581
20
-0.702265
10
-8.355801
20
-1.211533
10
-8.266253
20
-1.719383
10
-10.123482
20
-2.937312
10
-9.905300
20
-3.605234
10
-9.643104
20
-4.257137
10
-7.437515
20
-3.996321
10
-7.312005
20
-4.221588
10
-7.179673
20
-4.442917
10
-8.508341
20
-6.222605
10
-8.074874
20
-6.775624
10
-7.605527
20
-7.298536
10
-5.622156
20
-6.299094
10
-5.427169
20
-6.467848
10
-5.227119
20
-6.630569
10
-5.866969
20
-8.757360
10
-5.270500
20
-9.128774
10
-4.650611
20
-9.459624
10
-3.128682
20
-7.842102
10
-2.887736
20
-7.933990
10
-2.644097
20
-8.018477
10
-2.517954
20
-10.235848
10
-1.830425
20
-10.380859
10
-1.134763
20
-10.479742
10
-0.257842
20
-8.439238
10
-0.000000
20
-8.443176
10
0.257842
20
-8.439238
10
1.134763
20
-10.479742
10
1.830425
20
-10.380859
10
2.517954
20
-10.235848
10
2.644097
20
-8.018477
10
2.887736
20
-7.933990
10
3.128682
20
-7.842102
10
4.650611
20
-9.459624
10
5.270500
20
-9.128774
10
5.866969
20
-8.757360
10
5.227119
20
-6.630569
10
5.427169
20
-6.467848
10
5.622156
20
-6.299094
10
7.605527
20
-7.298536
10
8.074874
20
-6.775624
10
8.508341
20
-6.222605
10
7.179673
20
-4.442917
10
7.312005
20
-4.221588
10
7.437515
20
-3.996321
10
9.643104
20
-4.257137
10
9.905300
20
-3.605234
10
10.019958
20
-3.273091
10
8.266253
20
-1.719383
0
LWPOLYLINE
8
CUT
90
48
70
1
10
2.500000
20
-0.000000
10
2.494647
20
-0.163507
10
2.478611
20
-0.325983
10
2.451963
20
-0.486830
10
2.414660
20
-0.644332
10
2.366697
20
-0.797776
10
2.308109
20
-0.946444
10
2.238968
20
-1.089527
10
2.159397
20
-1.226309
10
2.069553
20
-1.355981
10
1.970629
20
-1.477841
10
1.863860
20
-1.591109
10
1.750512
20
-1.694968
10
1.631974
20
-1.788605
10
1.509666
20
-1.871210
10
1.385023
20
-1.941988
10
1.258498
20
-1.999144
10
1.131652
20
-2.041893
10
1.006054
20
-2.069456
10
0.883284
20
-2.081052
10
0.765025
20
-2.076001
10
0.653059
20
-2.053629
10
0.549222
20
-2.014166
10
0.455418
20
-1.957956
10
0.373609
20
-1.885430
10
0.305829
20
-1.797099
10
0.253158
20
-1.693541
10
0.216721
20
-1.575402
10
0.197656
20
-1.443438
10
0.196137
20
-1.298461
10
0.212365
20
-1.141461
10
0.246478
20
-0.973649
10
0.298625
20
-0.796303
10
0.368898
20
-0.610838
10
0.457319
20
-0.418731
10
0.562863
20
-0.221606
10
0.684451
20
-0.020118
10
0.821024
20
0.184944
10
0.971450
20
0.392555
10
1.134527
20
0.603203
10
1.309005
20
0.815159
10
1.492596
20
1.027669
10
1.683009
20
1.239050
10
1.877903
20
1.447508
10
2.075005
20
1.650260
10
2.272024
20
1.845438
10
2.466619
20
2.030191
10
2.655441
20
2.201689
10
2.835148
20
2.357222
0
ENDSEC
0
EOF
